<?xml version="1.0" standalone="no"?>
<!DOCTYPE svg PUBLIC "-//W3C//DTD SVG 20010904//EN"
 "http://www.w3.org/TR/2001/REC-SVG-20010904/DTD/svg10.dtd">
<svg version="1.0" xmlns="http://www.w3.org/2000/svg"
 width="218.800000pt" height="240.000000pt" viewBox="0 0 2188.000000 2400.000000"
 preserveAspectRatio="xMidYMid meet">

<g transform="translate(0.000000,2400.000000) scale(0.100000,-0.100000)"
fill="#000000" stroke="none">
<path d="M64 23961 c-6 -7 -4 -23914 2 -23938 l6 -23 1353 0 1352 0 6 38 c3
20 5 2298 4 5062 -1 2764 -1 5139 1 5278 l3 252 1319 0 1320 0 1 -1297 c1
-714 1 -1302 0 -1307 -1 -4 1 -17 4 -27 6 -19 41 -19 1401 -19 l1394 0 2 2651
3 2650 1345 2 c740 1 1351 6 1358 10 9 6 12 283 12 1328 l0 1319 1349 0 c1214
0 1351 2 1365 16 14 14 16 150 16 1353 0 1026 -3 1340 -12 1349 -9 9 -331 12
-1388 12 -756 0 -1381 -4 -1387 -8 -10 -6 -13 -287 -15 -1328 l-3 -1319 -1352
0 c-743 0 -1355 -4 -1360 -8 -4 -5 -9 -601 -10 -1325 l-1 -1317 -2681 -3
-2681 -2 -2 442 c-2 244 -3 2020 -3 3948 l0 3505 9510 2 c5231 2 9516 3 9523
3 9 0 12 277 12 1350 l0 1350 -32 0 c-5551 3 -21731 4 -21734 1z m7722 -1641
c14 -6 35 -22 46 -35 11 -14 26 -25 33 -25 29 0 38 -41 32 -146 -5 -113 -11
-132 -33 -113 -11 9 -16 5 -26 -17 -14 -33 -94 -117 -120 -127 -10 -3 -18 -15
-18 -26 0 -18 -36 -55 -63 -64 -9 -3 -9 -8 2 -20 11 -14 33 -17 126 -17 115 0
124 -3 138 -43 12 -32 -35 -39 -197 -32 l-148 7 6 56 c7 59 20 78 135 200 30
31 65 74 78 95 13 21 30 40 38 44 11 4 15 22 15 68 0 78 -5 92 -41 110 -45 24
-139 18 -139 -8 0 -18 -32 -47 -51 -47 -22 0 -41 32 -33 54 3 8 14 18 25 21
10 3 28 18 39 32 28 35 106 52 156 33z m8269 -30 l0 -35 -125 -5 -125 -5 -7
-73 c-5 -43 -3 -83 3 -98 9 -25 13 -26 62 -22 28 3 72 3 97 -1 39 -5 45 -9 42
-29 -2 -16 2 -22 17 -22 37 0 51 -37 50 -135 -1 -118 -8 -139 -42 -143 -17 -2
-26 -8 -24 -15 2 -7 1 -19 -4 -28 -18 -35 -203 -35 -217 0 -3 9 -17 24 -30 35
-32 26 -28 71 8 71 18 0 29 -9 40 -32 15 -32 16 -33 85 -33 39 0 75 4 82 8 34
21 46 168 18 221 -16 33 -39 41 -113 41 -39 0 -62 -6 -84 -22 -30 -21 -31 -21
-44 -3 -17 23 -20 315 -4 346 10 18 21 19 163 17 l152 -3 0 -35z m5443 25 c25
-9 3 -183 -23 -178 -6 1 -15 22 -22 47 -6 25 -14 50 -18 56 -4 6 -51 10 -120
10 -62 0 -120 3 -129 6 -19 7 -21 39 -3 51 23 15 275 21 315 8z m-16460 -7 c9
-9 12 -86 12 -284 0 -205 3 -274 13 -281 6 -6 33 -15 59 -22 27 -6 62 -20 79
-30 l30 -19 -33 -5 c-18 -4 -101 -7 -185 -9 -170 -3 -188 2 -159 46 14 23 24
26 71 26 l55 0 0 214 c0 118 -3 221 -6 230 -4 9 -18 16 -34 16 -42 0 -48 20
-14 49 17 14 38 38 47 54 18 29 45 35 65 15z m5509 -11 c10 -12 30 -30 46 -40
25 -16 27 -22 27 -90 0 -95 -7 -120 -32 -114 -21 6 -41 -23 -32 -47 3 -8 18
-16 32 -18 26 -3 27 -7 34 -73 10 -100 -2 -178 -28 -189 -11 -5 -25 -22 -31
-36 -9 -24 -18 -28 -66 -34 -79 -10 -167 5 -167 29 0 17 53 32 142 40 l66 6
12 51 c16 66 7 145 -21 174 -12 12 -38 25 -59 29 -21 4 -46 12 -56 20 -25 18
-5 41 43 48 20 4 49 19 65 33 23 23 28 36 28 73 0 25 -4 51 -8 58 -12 19 -60
33 -115 33 -49 0 -53 -2 -67 -33 -18 -39 -53 -48 -70 -18 -12 24 2 61 23 61 7
0 24 14 39 30 25 28 30 30 101 30 66 0 78 -3 94 -23z m2724 6 c11 -12 14 -62
14 -217 l0 -201 45 -23 c60 -30 62 -61 5 -78 -36 -10 -40 -14 -47 -53 -9 -52
-14 -61 -38 -61 -22 0 -30 19 -30 71 0 21 -1 40 -2 40 -2 1 -61 5 -133 8
l-130 6 2 28 c1 15 11 40 21 55 11 15 25 45 31 67 7 26 19 44 33 50 16 7 27
24 35 57 14 60 20 68 45 68 19 0 20 -4 16 -52 -4 -37 -12 -57 -27 -69 -20 -17
-54 -115 -45 -130 8 -13 100 -20 127 -10 26 10 27 12 27 93 0 114 -8 158 -29
158 -48 0 -55 67 -12 126 16 21 32 49 35 62 9 26 38 29 57 5z m5451 -10 c15
-16 36 -36 48 -45 26 -23 26 -47 -2 -57 -31 -12 -58 4 -58 34 0 24 -3 25 -61
25 -58 0 -60 -1 -71 -31 -8 -22 -15 -29 -29 -26 -10 3 -20 -2 -23 -10 -11 -27
-6 -122 6 -129 6 -4 52 -8 102 -8 86 -1 91 -2 94 -23 2 -15 10 -23 22 -23 31
0 40 -32 40 -144 0 -93 -3 -109 -20 -126 -11 -11 -23 -20 -28 -20 -4 0 -12
-10 -17 -22 -13 -28 -67 -40 -138 -30 l-52 7 0 54 c0 63 20 80 37 33 11 -30
14 -30 72 -29 l61 2 14 62 c12 53 12 71 0 130 l-14 68 -60 3 c-33 2 -68 8 -78
13 -25 14 -38 -25 -47 -146 -8 -108 -15 -135 -35 -135 -18 0 -24 21 -35 121
-8 86 2 356 15 390 4 10 14 15 23 12 12 -3 29 10 50 36 32 40 34 41 95 41 55
0 66 -3 89 -27z m2716 -171 c3 -33 -22 -128 -39 -146 -5 -6 -9 -7 -9 -4 0 3
-5 29 -10 58 -14 72 2 133 33 128 17 -2 23 -11 25 -36z m-72 -170 c7 -64 -2
-125 -34 -232 -16 -51 -19 -55 -51 -58 l-34 -3 7 47 c3 25 15 61 26 79 11 18
24 65 30 106 11 87 29 144 41 132 5 -5 12 -37 15 -71z m-11012 -185 c21 -28
21 -29 2 -43 -29 -21 -55 -17 -67 10 -8 17 -8 29 1 45 15 28 37 24 64 -12z
m-7967 -2118 c6 -6 8 -19 6 -30 -5 -16 -15 -19 -73 -19 -37 0 -82 -3 -99 -6
l-31 -6 0 -74 c0 -52 4 -77 15 -88 23 -22 81 -30 125 -17 47 14 63 47 58 127
l-3 59 30 0 c27 0 31 -4 39 -42 5 -24 5 -66 0 -100 -8 -49 -12 -58 -31 -61
-31 -5 -33 -52 -3 -52 29 0 40 -37 40 -140 0 -95 -11 -140 -34 -140 -8 0 -25
-13 -38 -29 -24 -31 -37 -34 -131 -32 -55 1 -59 3 -68 31 -7 19 -18 30 -30 30
-39 0 -52 42 -47 150 5 103 15 130 49 130 27 0 23 24 -10 57 -52 52 -48 184 6
208 12 5 24 20 28 32 5 22 10 23 98 23 54 0 98 -5 104 -11z m-7 -2660 c0 -11
5 -29 10 -40 9 -15 15 -17 31 -9 15 9 21 7 27 -7 4 -10 7 -122 6 -250 -1 -235
-6 -269 -39 -257 -16 7 -45 -33 -38 -52 7 -20 -38 -34 -110 -34 -60 0 -63 2
-104 43 -45 46 -52 67 -29 86 20 16 54 -2 66 -35 8 -21 16 -24 61 -24 46 0 55
4 90 39 39 39 50 73 27 88 -7 4 -51 8 -97 8 -64 0 -85 3 -89 14 -3 8 -21 29
-41 48 l-36 32 -3 108 c-5 136 4 173 45 193 20 10 33 25 37 43 l6 27 90 0 c84
0 90 -1 90 -21z m10359 8 c7 -9 12 -107 13 -293 l3 -279 56 -11 c52 -10 108
-39 109 -56 0 -11 -121 -19 -250 -16 l-125 3 0 30 c0 29 1 30 60 35 l60 5 3
224 c2 232 -1 254 -38 244 -27 -7 -26 18 3 44 12 11 30 34 39 52 18 33 47 41
67 18z m531 -22 c4 -24 11 -31 32 -33 17 -2 30 -11 35 -25 9 -25 7 -459 -2
-488 -4 -12 -15 -19 -31 -19 -19 0 -26 -6 -30 -30 -5 -24 -13 -31 -41 -36 -38
-7 -151 0 -161 11 -3 3 -1 15 6 25 17 28 16 30 -23 30 -39 0 -35 -7 -60 125
-20 106 -19 190 4 303 10 51 20 94 22 96 2 1 16 7 32 14 15 7 27 19 27 30 0
30 10 33 99 30 l86 -3 5 -30z m-2719 -2655 c14 -17 33 -30 42 -30 24 0 30 -38
25 -149 -6 -114 -12 -130 -39 -105 -18 16 -19 15 -25 -26 -6 -34 -12 -44 -34
-52 -16 -5 -33 -22 -40 -39 -7 -17 -20 -29 -30 -29 -12 0 -22 -12 -30 -35 -8
-24 -19 -37 -36 -41 -31 -8 -32 -42 -1 -49 12 -3 69 -6 127 -8 l105 -2 3 -31
c2 -23 -2 -33 -15 -38 -10 -4 -84 -4 -165 0 -143 7 -147 7 -152 30 -10 38 10
103 42 137 27 28 147 162 202 225 29 33 28 139 -1 176 -18 23 -27 26 -84 26
-61 0 -65 -2 -79 -29 -19 -35 -45 -47 -64 -27 -18 17 -8 66 12 66 8 0 24 12
35 26 42 53 157 55 202 4z m-8633 18 c9 -9 12 -87 12 -289 0 -306 -4 -289 65
-289 51 0 65 -9 65 -41 l0 -29 -166 0 -165 0 3 33 c3 32 4 32 63 37 l60 5 3
206 c3 224 -3 259 -41 259 -40 0 -38 10 11 66 47 54 68 64 90 42z m398 0 c4
-6 7 -131 5 -277 -1 -146 2 -272 7 -279 5 -7 32 -16 61 -21 61 -10 91 -32 73
-54 -14 -17 -306 -30 -334 -16 -12 7 -15 16 -9 36 7 26 12 28 72 33 l64 5 3
206 c3 226 -3 259 -42 259 -40 0 -38 13 12 68 46 51 74 63 88 40z m7704 -7 c6
-12 10 -123 10 -290 l0 -270 38 -10 c20 -6 46 -11 58 -11 11 0 29 -6 40 -14
39 -30 3 -41 -154 -46 -182 -6 -184 -6 -180 34 3 30 4 31 60 34 l57 3 3 207
c3 235 1 256 -31 260 -37 6 -34 25 11 74 46 51 71 59 88 29z m-5440 -2923 c3
-157 8 -289 12 -293 3 -4 26 -9 50 -11 74 -9 88 -14 88 -32 0 -38 -19 -42
-188 -42 l-163 0 3 33 c3 32 4 32 63 37 l60 5 0 230 0 229 -24 6 c-34 8 -37
25 -9 52 13 13 29 36 36 51 10 23 18 28 40 25 l27 -3 5 -287z m499 286 c22 -5
31 -12 31 -26 0 -12 11 -23 29 -29 33 -12 41 -33 40 -104 -1 -69 -11 -99 -34
-103 -11 -2 -24 -8 -28 -12 -15 -13 3 -50 23 -50 11 0 24 -9 30 -19 11 -22 14
-220 2 -238 -4 -6 -20 -16 -35 -22 -16 -6 -27 -18 -27 -30 0 -24 -26 -31 -112
-31 -64 0 -68 1 -112 43 -47 44 -58 75 -32 96 20 17 50 -1 66 -39 12 -29 14
-30 79 -30 38 0 74 5 84 13 23 17 35 85 26 148 -10 77 -16 86 -57 93 -101 18
-118 49 -42 77 99 36 128 104 74 168 -24 29 -30 31 -93 31 -39 0 -72 5 -79 12
-20 20 -14 46 11 51 36 7 122 7 156 1z m2218 -6 c4 -7 8 -137 8 -290 0 -152 3
-279 7 -283 3 -4 26 -9 50 -11 75 -9 88 -13 88 -33 0 -37 -21 -42 -186 -39
l-159 3 0 30 c0 29 1 30 60 35 l60 5 3 228 2 227 -25 12 c-27 12 -34 43 -10
51 8 4 21 22 29 42 12 27 21 35 40 35 14 0 28 -6 33 -12z m529 4 c21 -14 24
-48 14 -195 -5 -82 -6 -170 -3 -197 5 -45 9 -50 39 -60 63 -21 62 -55 -3 -89
-16 -8 -23 -21 -23 -41 0 -26 -22 -60 -39 -60 -16 0 -31 26 -31 56 0 17 -6 37
-14 43 -9 7 -54 13 -108 15 -51 1 -103 8 -115 15 -30 15 -31 66 -3 83 11 7 20
23 20 35 0 48 26 79 61 75 4 -1 10 22 13 51 8 54 20 77 42 77 34 0 21 -109
-16 -133 -11 -6 -20 -18 -20 -26 0 -8 -6 -30 -12 -49 -11 -30 -11 -35 7 -48
19 -14 90 -19 119 -8 13 5 16 25 16 120 0 78 -4 116 -12 124 -7 5 -24 18 -37
28 l-23 18 42 87 c40 85 56 99 86 79z m-2908 -65 c14 -16 -20 -77 -43 -77 -24
0 -40 43 -26 69 13 24 52 28 69 8z m2967 -2591 c15 -11 17 -22 12 -73 -4 -33
-9 -67 -13 -76 -10 -26 -33 -20 -40 11 -15 73 -13 72 -131 72 -126 0 -153 6
-153 31 0 27 17 33 105 40 148 11 200 10 220 -5z m-6031 -12 c3 -9 6 -136 6
-282 0 -147 4 -272 8 -278 4 -5 32 -16 63 -22 66 -15 108 -40 88 -53 -8 -5
-92 -9 -186 -9 l-173 0 0 24 c0 33 18 44 75 48 l50 3 3 219 c3 232 0 246 -44
246 -36 0 -37 17 -3 42 17 13 37 35 45 51 16 30 58 38 68 11z m539 -11 c14
-16 33 -34 41 -41 9 -7 16 -24 16 -37 0 -21 -5 -25 -30 -25 -26 0 -31 5 -36
30 -6 29 -8 30 -61 30 -51 0 -57 -3 -94 -42 -37 -40 -39 -46 -39 -105 l0 -63
48 8 c69 10 140 8 152 -4 9 -9 9 -18 0 -34 -12 -22 -16 -23 -100 -17 l-87 7
-7 -38 c-3 -20 -6 -73 -6 -118 0 -77 1 -81 22 -80 14 1 27 -7 32 -20 9 -19 17
-21 72 -20 70 1 96 -13 78 -42 -9 -14 -27 -17 -105 -17 l-94 0 2 25 c3 42 -5
55 -23 39 -14 -11 -18 -10 -30 5 -21 29 -29 100 -29 256 0 168 14 236 52 251
12 4 23 13 23 17 0 5 9 21 21 36 18 23 27 26 88 26 61 0 70 -3 94 -27z m4908
0 c6 -16 8 -88 4 -187 -3 -89 -2 -208 2 -265 l8 -104 60 -17 c33 -9 71 -22 85
-30 23 -12 24 -14 5 -21 -11 -4 -98 -8 -192 -8 l-173 -1 0 25 c0 31 26 45 84
45 l46 0 0 223 c0 236 -2 247 -47 247 -31 0 -30 27 2 42 14 6 34 26 45 45 24
41 56 44 71 6z m530 -159 c6 -30 -12 -119 -30 -152 -25 -44 -46 107 -23 161
16 37 44 32 53 -9z m-75 -161 c4 -25 4 -69 1 -97 -7 -67 -36 -187 -50 -204
-16 -20 -71 -11 -75 12 -6 32 9 106 21 106 20 0 36 50 47 149 6 51 13 98 17
104 10 17 32 -22 39 -70z m-5316 17 c18 -11 26 -148 13 -220 -8 -41 -11 -45
-37 -45 l-29 0 -1 133 c-1 79 3 134 9 136 17 7 29 6 45 -4z m-516 -2341 c6 -5
5 -18 -1 -32 -10 -22 -9 -23 16 -19 17 2 32 -3 41 -13 18 -22 19 -145 2 -202
-13 -45 -37 -57 -50 -25 -5 11 -9 0 -12 -33 -5 -46 -7 -50 -32 -53 -22 -3 -30
-10 -36 -35 -6 -22 -15 -33 -30 -35 -14 -2 -27 -16 -37 -37 -9 -22 -23 -37
-39 -41 -28 -7 -30 -11 -16 -34 7 -12 38 -16 134 -20 68 -3 127 -8 131 -12 11
-11 -4 -46 -23 -53 -32 -12 -305 -6 -314 8 -10 14 -1 103 13 129 6 10 14 16
19 13 5 -3 15 6 22 20 8 14 45 58 85 97 39 40 74 84 78 96 5 17 12 22 26 19
17 -5 19 1 19 55 0 32 -5 79 -11 103 -12 47 -28 55 -115 55 -37 0 -46 -4 -53
-22 -12 -32 -48 -61 -66 -55 -9 4 -15 19 -15 37 0 25 5 33 29 41 19 7 31 19
33 32 2 16 12 24 38 29 43 7 151 -1 164 -13z m454 6 c6 -3 12 -15 12 -29 0
-19 6 -25 28 -28 24 -3 28 -8 34 -48 9 -59 10 -326 1 -412 -5 -62 -8 -68 -28
-68 -16 0 -30 -11 -44 -35 l-20 -35 -77 0 c-75 0 -76 0 -87 30 -7 17 -19 30
-28 30 -10 0 -25 8 -34 17 -15 14 -16 34 -12 157 6 133 5 138 -8 88 -7 -30
-16 -56 -19 -59 -12 -12 -6 100 10 185 25 139 27 146 54 152 15 4 26 15 30 30
5 20 14 26 45 31 38 6 114 2 143 -6z m-460 -2677 c3 -22 9 -28 27 -28 38 0 48
-31 43 -140 -4 -102 -18 -141 -44 -119 -10 8 -14 2 -20 -27 -5 -28 -13 -39
-36 -48 -20 -7 -31 -20 -35 -38 -3 -18 -13 -28 -27 -30 -12 -2 -27 -17 -37
-37 -9 -19 -28 -40 -43 -48 -57 -30 -4 -53 119 -52 134 1 127 3 123 -33 l-3
-33 -145 -3 c-80 -1 -156 0 -169 3 -22 6 -23 9 -16 63 8 63 21 96 35 87 5 -3
17 9 26 27 9 18 38 53 63 78 25 25 67 70 94 99 43 50 47 58 47 106 0 111 -20
135 -114 135 -32 0 -45 -7 -75 -40 -39 -43 -55 -49 -65 -24 -14 37 -6 62 24
73 17 5 30 16 30 23 0 31 24 39 110 36 85 -3 85 -3 88 -30z m471 2 c7 -22 16
-30 34 -30 22 0 25 -5 31 -54 6 -48 2 -124 -10 -183 -2 -13 -13 -23 -26 -25
-15 -2 -25 -13 -32 -36 -6 -21 -17 -34 -32 -38 -13 -3 -27 -18 -33 -35 -6 -18
-17 -29 -28 -29 -26 0 -43 -19 -43 -48 0 -17 -8 -26 -31 -34 -40 -14 -34 -40
11 -50 19 -5 71 -8 115 -7 121 2 117 4 113 -33 l-3 -33 -150 -3 c-196 -4 -197
-3 -189 51 9 57 30 106 49 113 8 3 22 21 31 40 9 18 29 42 45 52 28 18 109
116 109 132 0 4 9 10 20 13 17 4 20 14 20 64 0 91 -35 133 -112 133 -36 0 -52
-5 -68 -22 -11 -12 -20 -26 -20 -30 0 -15 -44 -26 -57 -16 -29 23 -8 78 29 78
10 0 21 7 23 15 3 8 7 22 10 30 3 12 23 15 94 15 l89 0 11 -30z m-474 -2655
c12 -14 26 -25 33 -25 40 0 59 -132 33 -228 -10 -35 -16 -43 -31 -39 -20 5
-30 -10 -30 -44 0 -13 -12 -25 -34 -34 -23 -10 -36 -23 -38 -37 -2 -15 -11
-24 -26 -26 -14 -2 -27 -15 -37 -38 -8 -21 -25 -38 -42 -45 l-28 -11 24 -19
c19 -16 39 -19 125 -19 105 0 126 -7 126 -42 0 -31 -30 -36 -179 -29 -114 5
-146 9 -154 21 -13 22 10 130 28 130 7 0 21 12 31 28 9 15 45 56 79 92 34 36
69 77 78 93 10 15 25 27 33 27 14 0 16 12 12 85 -2 47 -10 91 -16 97 -7 7 -41
14 -77 16 -66 4 -66 4 -99 -34 -39 -45 -66 -42 -66 6 0 22 6 33 23 39 12 5 31
19 42 31 29 33 54 40 115 35 44 -3 59 -9 75 -30z m470 8 c15 -15 16 -34 10
-168 -10 -208 -5 -234 51 -274 24 -17 44 -35 44 -41 0 -5 -17 -19 -39 -29 -30
-16 -40 -28 -45 -55 -8 -39 -27 -59 -49 -50 -17 6 -21 15 -32 72 l-7 32 -103
0 c-108 0 -155 10 -155 33 0 8 14 31 30 52 17 21 30 46 30 57 0 10 7 33 16 49
15 30 16 30 35 13 16 -14 19 -28 17 -73 l-3 -56 70 0 70 0 3 104 c3 111 -7
143 -48 156 -25 8 -26 39 -2 82 9 17 27 50 40 72 24 44 41 50 67 24z m-135
-221 c0 -50 -21 -92 -46 -92 -19 0 -19 59 0 105 22 53 46 46 46 -13z"/>
<path d="M2208 19317 c-19 -20 -31 -105 -22 -165 11 -80 14 -82 108 -82 l84 0
9 53 c9 54 2 182 -11 195 -4 4 -40 8 -80 10 -56 3 -76 0 -88 -11z"/>
<path d="M2232 16933 c-36 -14 -57 -126 -43 -227 10 -76 32 -96 107 -96 50 0
55 2 71 33 11 21 18 63 21 122 l4 90 -39 43 c-33 34 -46 42 -74 41 -19 0 -40
-3 -47 -6z"/>
<path d="M13113 16925 c-44 -31 -62 -175 -43 -348 12 -115 13 -117 47 -143 64
-49 147 -14 157 66 16 122 18 228 6 312 -12 78 -16 91 -41 108 -33 24 -96 26
-126 5z"/>
<path d="M2221 6293 c-37 -37 -45 -105 -39 -305 l4 -141 32 -28 c40 -36 87
-38 128 -7 16 12 32 27 36 33 4 5 8 100 7 210 0 195 0 201 -23 229 -18 21 -35
29 -69 33 -41 5 -49 2 -76 -24z"/>
<path d="M19085 16010 l-30 -5 -3 -2640 c-1 -1452 -4 -2646 -7 -2652 -3 -10
-554 -13 -2709 -13 -1487 0 -2711 -3 -2720 -6 -14 -6 -16 -132 -16 -1325 l0
-1319 -1341 0 c-905 0 -1347 -3 -1360 -10 -19 -11 -19 -36 -19 -1353 0 -1031
3 -1346 12 -1355 18 -18 2763 -17 2775 1 4 6 10 604 13 1327 l5 1315 2715 5
2715 5 5 1320 5 1320 1350 5 1350 5 0 2689 0 2690 -1355 1 c-745 0 -1368 -2
-1385 -5z m1823 -4327 c5 -10 10 -139 11 -288 1 -148 6 -274 10 -278 4 -4 25
-10 47 -13 74 -10 84 -14 84 -33 0 -37 -21 -42 -186 -39 l-159 3 0 30 c0 29 1
30 60 35 l60 5 5 200 c6 245 5 253 -26 267 -30 14 -30 20 -2 61 39 56 51 67
69 67 10 0 22 -8 27 -17z m592 -18 l0 -35 -104 0 c-58 0 -116 -4 -130 -10 -25
-9 -26 -12 -26 -94 0 -57 4 -87 13 -93 6 -4 45 -6 85 -4 68 3 74 1 110 -28 20
-18 42 -36 48 -40 16 -13 23 -104 16 -186 -7 -68 -8 -70 -39 -80 -21 -6 -33
-16 -33 -27 0 -26 -31 -38 -99 -38 -73 0 -96 9 -138 50 -36 36 -41 61 -17 81
20 16 44 3 62 -34 12 -25 17 -27 82 -27 78 0 93 10 110 68 13 48 13 86 -2 134
-14 48 -24 53 -111 62 -67 7 -69 6 -98 -25 -16 -17 -32 -29 -36 -26 -20 21
-28 159 -16 305 l6 82 158 0 159 0 0 -35z m-6041 -2638 c7 -9 11 -95 13 -256
1 -133 4 -259 7 -279 6 -35 9 -37 59 -48 65 -15 111 -42 91 -55 -8 -5 -92 -9
-186 -9 l-173 0 0 29 c0 34 20 44 78 39 34 -3 37 -1 43 27 4 17 7 119 8 228 1
218 7 199 -62 221 -16 5 -11 14 35 61 56 57 69 63 87 42z m531 -8 c22 -41 7
-49 -89 -49 -102 0 -101 1 -101 -89 0 -43 5 -62 20 -79 37 -39 103 -38 154 3
16 12 19 26 18 77 -2 85 4 100 36 96 19 -2 28 -11 34 -33 9 -29 3 -140 -8
-170 -9 -21 -30 -19 -47 5 -14 19 -14 18 -13 -24 1 -44 2 -45 31 -43 27 2 30
-1 37 -38 10 -59 10 -180 -2 -209 -7 -18 -17 -26 -34 -26 -35 0 -39 12 -27 77
8 40 8 75 0 119 -11 63 -11 63 -50 69 -56 10 -136 -3 -144 -23 -14 -36 -17
-133 -6 -178 13 -51 8 -62 -29 -66 -37 -4 -52 45 -45 155 7 108 10 117 45 117
24 0 27 3 22 25 -2 14 -10 25 -18 25 -28 0 -44 43 -44 116 0 88 5 104 35 104
16 0 26 9 35 30 12 30 13 30 96 30 74 0 85 -2 94 -21z m2195 4 c4 -10 9 -133
12 -273 2 -140 6 -265 8 -276 4 -17 15 -23 52 -29 56 -8 112 -43 91 -56 -7 -5
-91 -9 -185 -9 l-173 0 0 25 c0 30 28 46 75 43 19 -1 40 3 45 8 7 7 9 90 8
230 l-3 219 -32 10 c-18 5 -33 12 -33 16 0 15 96 109 111 109 9 0 20 -8 24
-17z m514 4 c6 -8 14 -29 17 -47 6 -26 9 -29 16 -16 14 25 37 19 45 -11 5 -16
8 -122 8 -238 0 -115 -3 -222 -8 -237 -15 -56 -47 -23 -62 63 -9 50 -21 67
-37 51 -14 -14 -135 -16 -157 -3 -8 6 -11 16 -6 31 7 21 5 22 -19 16 -38 -9
-46 21 -46 169 0 143 8 175 45 175 15 0 25 6 25 14 0 8 7 22 16 30 20 21 146
23 163 3z m-188 -527 c27 -15 24 -48 -7 -62 -22 -11 -28 -10 -40 7 -33 45 -2
81 47 55z m196 -12 c6 -7 8 -32 5 -56 -3 -36 -8 -43 -31 -49 -34 -9 -119 -9
-153 0 -53 14 -22 57 40 57 57 0 90 12 101 36 12 27 24 30 38 12z m-2709 -75
l-3 -28 -96 -3 c-77 -2 -99 0 -109 13 -25 30 15 44 118 45 l93 0 -3 -27z
m-3185 -2040 c5 -3 6 -16 3 -29 -6 -20 -3 -24 18 -24 35 0 49 -32 49 -110 -1
-81 -27 -154 -54 -147 -14 4 -19 -2 -21 -32 -3 -31 -7 -37 -33 -41 -19 -3 -31
-12 -33 -25 -2 -11 -18 -34 -36 -50 -17 -17 -38 -40 -47 -50 -9 -11 -25 -25
-35 -31 -16 -10 -17 -14 -6 -25 9 -10 51 -16 137 -19 68 -3 127 -8 131 -12 3
-4 -1 -19 -10 -33 l-17 -26 -157 3 -157 3 -3 24 c-7 46 9 113 27 118 10 2 25
16 34 31 14 24 103 123 181 203 30 30 34 87 14 163 -13 51 -23 56 -110 56 -44
0 -58 -4 -58 -14 0 -16 -47 -76 -60 -76 -4 0 -13 13 -18 29 -13 37 2 60 40 63
21 2 24 5 16 15 -15 19 7 41 45 46 35 4 147 -3 160 -10z m403 -281 c1 -310 -1
-302 60 -302 42 0 94 -11 94 -19 0 -4 -6 -16 -14 -27 -13 -17 -31 -20 -158
-25 -79 -3 -151 -4 -161 -1 -23 6 -34 51 -16 63 8 5 38 9 67 9 l52 0 0 230 0
230 -24 10 c-38 14 -42 31 -14 54 14 12 29 31 33 44 6 19 12 23 43 20 l37 -3
1 -283z"/>
<path d="M18551 8953 c-38 -31 -51 -134 -30 -233 13 -61 45 -83 117 -78 65 4
76 28 80 182 4 111 3 118 -13 103 -22 -22 -22 -22 -40 13 -13 25 -21 30 -54
30 -22 0 -48 -8 -60 -17z"/>
<path d="M5446 5374 c-14 -14 -16 -151 -16 -1355 l0 -1339 26 -10 c16 -6 517
-10 1359 -10 l1334 0 3 -1307 c2 -1034 6 -1307 16 -1311 6 -2 12 -12 12 -23 0
-19 27 -19 1379 -19 l1378 0 7 38 c3 20 6 634 6 1365 l0 1327 -22 1 c-13 0
-39 2 -58 3 -19 1 -621 3 -1337 4 l-1303 2 0 1319 c0 1193 -2 1319 -16 1325
-9 3 -631 6 -1384 6 -1231 0 -1370 -2 -1384 -16z m1920 -1673 c4 -20 13 -31
27 -33 31 -4 47 -44 47 -115 0 -73 -24 -143 -49 -143 -10 0 -21 -12 -26 -32
-6 -19 -21 -38 -35 -45 -13 -6 -28 -21 -32 -33 -4 -11 -19 -25 -32 -30 -15 -5
-28 -20 -32 -35 -3 -14 -20 -36 -38 -50 -48 -38 -26 -49 117 -55 119 -5 122
-6 125 -29 2 -13 -2 -28 -10 -32 -17 -11 -309 -11 -327 0 -8 5 -11 19 -8 37 3
16 8 46 12 67 3 21 12 37 19 37 8 0 22 13 33 29 14 23 100 120 191 216 12 14
17 122 6 161 -7 28 -44 44 -100 44 -40 0 -49 -5 -84 -42 -33 -36 -40 -40 -54
-29 -31 26 -14 81 25 81 10 0 21 13 28 30 l10 30 91 0 91 0 5 -29z m465 -1 c8
-22 17 -30 34 -30 29 0 35 -16 35 -95 0 -76 -14 -120 -35 -111 -15 6 -35 -21
-35 -48 0 -10 9 -16 25 -16 36 0 45 -27 45 -142 0 -110 -3 -122 -36 -132 -12
-4 -24 -15 -27 -26 -7 -27 -47 -40 -115 -39 -66 1 -104 10 -109 25 -6 18 61
44 110 44 57 0 92 13 101 37 4 10 9 45 12 78 8 89 -13 124 -91 150 -77 26 -85
50 -22 66 24 6 59 24 77 40 29 27 32 34 27 74 -7 64 -35 84 -114 85 -50 0 -63
-3 -63 -15 0 -9 -12 -28 -26 -42 l-26 -26 -20 20 c-26 26 -17 58 23 78 16 9
29 22 29 29 0 21 16 24 108 25 l83 1 10 -30z m-195 -526 c23 -29 25 -37 13
-45 -20 -13 -63 -11 -77 3 -25 25 -8 78 24 78 7 0 25 -16 40 -36z m2452 -2134
c13 -17 30 -30 37 -30 24 0 38 -41 38 -110 -1 -82 -27 -154 -54 -147 -15 4
-19 0 -19 -21 0 -28 -25 -62 -46 -62 -8 0 -20 -13 -29 -30 -9 -16 -22 -30 -30
-30 -8 0 -21 -16 -29 -35 -9 -20 -26 -39 -41 -45 -14 -5 -25 -14 -25 -20 0
-20 51 -30 150 -30 92 0 100 -2 111 -22 10 -18 8 -24 -10 -39 -18 -15 -38 -17
-159 -12 -75 2 -143 6 -149 8 -27 9 -11 135 19 142 10 3 18 10 18 15 0 6 33
45 74 87 40 42 81 91 90 109 19 36 30 40 45 15 7 -13 8 4 5 57 -10 155 -14
160 -111 160 -54 -1 -59 -3 -78 -33 -27 -42 -51 -46 -67 -12 -11 25 -10 29 12
46 14 10 36 30 50 43 32 31 52 36 120 30 46 -4 59 -9 78 -34z m516 34 c9 -4
16 -18 16 -34 0 -16 -7 -30 -16 -34 -9 -3 -67 -6 -129 -6 -94 0 -114 -3 -119
-16 -9 -24 -7 -147 3 -163 7 -10 31 -13 94 -12 83 2 86 1 100 -24 7 -15 24
-32 38 -38 20 -11 25 -23 31 -72 6 -55 3 -128 -8 -182 -3 -16 -12 -23 -28 -23
-15 0 -26 -7 -29 -20 -7 -27 -46 -40 -123 -40 -63 0 -66 1 -112 45 -40 37 -45
47 -36 62 19 31 52 28 72 -6 16 -30 19 -31 87 -31 39 0 75 4 81 8 29 18 42
128 24 193 -12 42 -37 55 -118 62 -41 3 -58 0 -77 -14 -60 -48 -74 -9 -66 191
l6 145 30 6 c39 9 259 11 279 3z"/>
<path d="M19063 5383 c-17 -6 -19 -5303 -2 -5352 l11 -31 1379 0 1379 0 -2
2693 -3 2692 -1375 2 c-756 1 -1381 -1 -1387 -4z"/>
</g>
</svg>
