<svg version="1.1" xmlns="http://www.w3.org/2000/svg" xmlns:xlink="http://www.w3.org/1999/xlink" width="572" height="390"><defs><clipPath id="xgqaTTNVfHsG"><path fill="none" stroke="none" d=" M 0 0 L 572 0 L 572 390 L 0 390 L 0 0 Z"/></clipPath></defs><g transform="scale(1,1)" clip-path="url(#xgqaTTNVfHsG)"><g><rect fill="rgb(255,255,255)" stroke="none" x="0" y="0" width="572" height="390" fill-opacity="1"/><path fill="none" stroke="rgb(192,192,192)" paint-order="fill stroke markers" d=" M 18.5 0.5 L 18.5 390.5 M 18.5 0.5 L 18.5 390.5 M 195.5 0.5 L 195.5 390.5 M 283.5 0.5 L 283.5 390.5 M 371.5 0.5 L 371.5 390.5 M 459.5 0.5 L 459.5 390.5 M 547.5 0.5 L 547.5 390.5" stroke-opacity="1" stroke-linecap="round" stroke-linejoin="round" stroke-miterlimit="10"/><path fill="none" stroke="rgb(192,192,192)" paint-order="fill stroke markers" d=" M 1.5 0.5 L 1.5 390.5 M 36.5 0.5 L 36.5 390.5 M 53.5 0.5 L 53.5 390.5 M 71.5 0.5 L 71.5 390.5 M 89.5 0.5 L 89.5 390.5 M 124.5 0.5 L 124.5 390.5 M 142.5 0.5 L 142.5 390.5 M 159.5 0.5 L 159.5 390.5 M 177.5 0.5 L 177.5 390.5 M 212.5 0.5 L 212.5 390.5 M 230.5 0.5 L 230.5 390.5 M 247.5 0.5 L 247.5 390.5 M 265.5 0.5 L 265.5 390.5 M 300.5 0.5 L 300.5 390.5 M 318.5 0.5 L 318.5 390.5 M 336.5 0.5 L 336.5 390.5 M 353.5 0.5 L 353.5 390.5 M 389.5 0.5 L 389.5 390.5 M 406.5 0.5 L 406.5 390.5 M 424.5 0.5 L 424.5 390.5 M 442.5 0.5 L 442.5 390.5 M 477.5 0.5 L 477.5 390.5 M 494.5 0.5 L 494.5 390.5 M 512.5 0.5 L 512.5 390.5 M 530.5 0.5 L 530.5 390.5 M 565.5 0.5 L 565.5 390.5" stroke-opacity="0.23529411764705882" stroke-linecap="round" stroke-linejoin="round" stroke-miterlimit="10"/><path fill="none" stroke="rgb(192,192,192)" paint-order="fill stroke markers" d=" M 0.5 43.5 L 572.5 43.5 M 0.5 43.5 L 572.5 43.5 M 0.5 131.5 L 572.5 131.5 M 0.5 220.5 L 572.5 220.5" stroke-opacity="1" stroke-linecap="round" stroke-linejoin="round" stroke-miterlimit="10"/><path fill="none" stroke="rgb(192,192,192)" paint-order="fill stroke markers" d=" M 0.5 8.5 L 572.5 8.5 M 0.5 8.5 L 572.5 8.5 M 0.5 26.5 L 572.5 26.5 M 0.5 61.5 L 572.5 61.5 M 0.5 78.5 L 572.5 78.5 M 0.5 96.5 L 572.5 96.5 M 0.5 114.5 L 572.5 114.5 M 0.5 149.5 L 572.5 149.5 M 0.5 167.5 L 572.5 167.5 M 0.5 184.5 L 572.5 184.5 M 0.5 202.5 L 572.5 202.5 M 0.5 237.5 L 572.5 237.5 M 0.5 255.5 L 572.5 255.5 M 0.5 273.5 L 572.5 273.5 M 0.5 290.5 L 572.5 290.5 M 0.5 325.5 L 572.5 325.5 M 0.5 343.5 L 572.5 343.5 M 0.5 361.5 L 572.5 361.5 M 0.5 378.5 L 572.5 378.5" stroke-opacity="0.23529411764705882" stroke-linecap="round" stroke-linejoin="round" stroke-miterlimit="10"/><path fill="none" stroke="rgb(0,0,0)" paint-order="fill stroke markers" d=" M 106.5 2.5 L 106.5 390.5" stroke-opacity="1" stroke-miterlimit="10"/><path fill="none" stroke="rgb(0,0,0)" paint-order="fill stroke markers" d=" M 106.5 1.5 L 103.5 4.5" stroke-opacity="1" stroke-miterlimit="10"/><path fill="none" stroke="rgb(0,0,0)" paint-order="fill stroke markers" d=" M 106.5 1.5 L 109.5 4.5" stroke-opacity="1" stroke-miterlimit="10"/><path fill="none" stroke="rgb(0,0,0)" paint-order="fill stroke markers" d=" M 0.5 308.5 L 570.5 308.5" stroke-opacity="1" stroke-miterlimit="10"/><path fill="none" stroke="rgb(0,0,0)" paint-order="fill stroke markers" d=" M 571.5 308.5 L 568.5 305.5" stroke-opacity="1" stroke-miterlimit="10"/><path fill="none" stroke="rgb(0,0,0)" paint-order="fill stroke markers" d=" M 571.5 308.5 L 568.5 311.5" stroke-opacity="1" stroke-miterlimit="10"/><text fill="none" stroke="rgb(255,255,255)" font-family="geogebra-sans-serif, sans-serif" font-size="10px" font-style="normal" font-weight="normal" text-decoration="normal" x="14" y="322" text-anchor="start" dominant-baseline="alphabetic" stroke-opacity="1" stroke-linejoin="bevel" stroke-miterlimit="10" stroke-width="3">–1</text><text fill="rgb(0,0,0)" stroke="none" font-family="geogebra-sans-serif, sans-serif" font-size="10px" font-style="normal" font-weight="normal" text-decoration="normal" x="14" y="322" text-anchor="start" dominant-baseline="alphabetic" fill-opacity="1">–1</text><text fill="none" stroke="rgb(255,255,255)" font-family="geogebra-sans-serif, sans-serif" font-size="10px" font-style="normal" font-weight="normal" text-decoration="normal" x="193" y="322" text-anchor="start" dominant-baseline="alphabetic" stroke-opacity="1" stroke-linejoin="bevel" stroke-miterlimit="10" stroke-width="3">1</text><text fill="rgb(0,0,0)" stroke="none" font-family="geogebra-sans-serif, sans-serif" font-size="10px" font-style="normal" font-weight="normal" text-decoration="normal" x="193" y="322" text-anchor="start" dominant-baseline="alphabetic" fill-opacity="1">1</text><text fill="none" stroke="rgb(255,255,255)" font-family="geogebra-sans-serif, sans-serif" font-size="10px" font-style="normal" font-weight="normal" text-decoration="normal" x="281" y="322" text-anchor="start" dominant-baseline="alphabetic" stroke-opacity="1" stroke-linejoin="bevel" stroke-miterlimit="10" stroke-width="3">2</text><text fill="rgb(0,0,0)" stroke="none" font-family="geogebra-sans-serif, sans-serif" font-size="10px" font-style="normal" font-weight="normal" text-decoration="normal" x="281" y="322" text-anchor="start" dominant-baseline="alphabetic" fill-opacity="1">2</text><text fill="none" stroke="rgb(255,255,255)" font-family="geogebra-sans-serif, sans-serif" font-size="10px" font-style="normal" font-weight="normal" text-decoration="normal" x="369" y="322" text-anchor="start" dominant-baseline="alphabetic" stroke-opacity="1" stroke-linejoin="bevel" stroke-miterlimit="10" stroke-width="3">3</text><text fill="rgb(0,0,0)" stroke="none" font-family="geogebra-sans-serif, sans-serif" font-size="10px" font-style="normal" font-weight="normal" text-decoration="normal" x="369" y="322" text-anchor="start" dominant-baseline="alphabetic" fill-opacity="1">3</text><text fill="none" stroke="rgb(255,255,255)" font-family="geogebra-sans-serif, sans-serif" font-size="10px" font-style="normal" font-weight="normal" text-decoration="normal" x="458" y="322" text-anchor="start" dominant-baseline="alphabetic" stroke-opacity="1" stroke-linejoin="bevel" stroke-miterlimit="10" stroke-width="3">4</text><text fill="rgb(0,0,0)" stroke="none" font-family="geogebra-sans-serif, sans-serif" font-size="10px" font-style="normal" font-weight="normal" text-decoration="normal" x="458" y="322" text-anchor="start" dominant-baseline="alphabetic" fill-opacity="1">4</text><text fill="none" stroke="rgb(255,255,255)" font-family="geogebra-sans-serif, sans-serif" font-size="10px" font-style="normal" font-weight="normal" text-decoration="normal" x="546" y="322" text-anchor="start" dominant-baseline="alphabetic" stroke-opacity="1" stroke-linejoin="bevel" stroke-miterlimit="10" stroke-width="3">5</text><text fill="rgb(0,0,0)" stroke="none" font-family="geogebra-sans-serif, sans-serif" font-size="10px" font-style="normal" font-weight="normal" text-decoration="normal" x="546" y="322" text-anchor="start" dominant-baseline="alphabetic" fill-opacity="1">5</text><text fill="none" stroke="rgb(255,255,255)" font-family="geogebra-sans-serif, sans-serif" font-size="10px" font-style="normal" font-weight="normal" text-decoration="normal" x="93" y="224" text-anchor="start" dominant-baseline="alphabetic" stroke-opacity="1" stroke-linejoin="bevel" stroke-miterlimit="10" stroke-width="3">1</text><text fill="rgb(0,0,0)" stroke="none" font-family="geogebra-sans-serif, sans-serif" font-size="10px" font-style="normal" font-weight="normal" text-decoration="normal" x="93" y="224" text-anchor="start" dominant-baseline="alphabetic" fill-opacity="1">1</text><text fill="none" stroke="rgb(255,255,255)" font-family="geogebra-sans-serif, sans-serif" font-size="10px" font-style="normal" font-weight="normal" text-decoration="normal" x="93" y="135" text-anchor="start" dominant-baseline="alphabetic" stroke-opacity="1" stroke-linejoin="bevel" stroke-miterlimit="10" stroke-width="3">2</text><text fill="rgb(0,0,0)" stroke="none" font-family="geogebra-sans-serif, sans-serif" font-size="10px" font-style="normal" font-weight="normal" text-decoration="normal" x="93" y="135" text-anchor="start" dominant-baseline="alphabetic" fill-opacity="1">2</text><text fill="none" stroke="rgb(255,255,255)" font-family="geogebra-sans-serif, sans-serif" font-size="10px" font-style="normal" font-weight="normal" text-decoration="normal" x="93" y="47" text-anchor="start" dominant-baseline="alphabetic" stroke-opacity="1" stroke-linejoin="bevel" stroke-miterlimit="10" stroke-width="3">3</text><text fill="rgb(0,0,0)" stroke="none" font-family="geogebra-sans-serif, sans-serif" font-size="10px" font-style="normal" font-weight="normal" text-decoration="normal" x="93" y="47" text-anchor="start" dominant-baseline="alphabetic" fill-opacity="1">3</text><text fill="none" stroke="rgb(255,255,255)" font-family="geogebra-sans-serif, sans-serif" font-size="10px" font-style="normal" font-weight="normal" text-decoration="normal" x="93" y="322" text-anchor="start" dominant-baseline="alphabetic" stroke-opacity="1" stroke-linejoin="bevel" stroke-miterlimit="10" stroke-width="3">0</text><text fill="rgb(0,0,0)" stroke="none" font-family="geogebra-sans-serif, sans-serif" font-size="10px" font-style="normal" font-weight="normal" text-decoration="normal" x="93" y="322" text-anchor="start" dominant-baseline="alphabetic" fill-opacity="1">0</text><path fill="rgb(21,101,192)" stroke="none" paint-order="stroke fill markers" fill-rule="evenodd" d=" M 159.79042001283574 202.4574265279464 L 195.0699685083374 131.89832953694304 L 265.6290654993407 167.1778780324447 L 230.34951700383903 237.73697502344808 Z" fill-opacity="0.09803921568627451"/><path fill="none" stroke="rgb(0,0,0)" paint-order="fill stroke markers" d=" M -5 31.86334528277423 L 577 322.8633452827745" stroke-opacity="0.6980392156862745" stroke-linecap="round" stroke-linejoin="round" stroke-miterlimit="10" stroke-width="1.5"/><path fill="none" stroke="rgb(0,0,0)" paint-order="fill stroke markers" d=" M -5 120.06221652152847 L 544.8755669569426 395" stroke-opacity="0.6980392156862745" stroke-linecap="round" stroke-linejoin="round" stroke-miterlimit="10" stroke-width="1.5"/><path fill="none" stroke="rgb(0,0,0)" paint-order="fill stroke markers" d=" M 63.51913327680904 395 L 263.5191332768089 -5" stroke-opacity="0.6980392156862745" stroke-linecap="round" stroke-linejoin="round" stroke-miterlimit="10" stroke-width="1.5"/><path fill="none" stroke="rgb(0,0,0)" paint-order="fill stroke markers" d=" M 151.71800451556317 395 L 351.718004515563 -5" stroke-opacity="0.6980392156862745" stroke-linecap="round" stroke-linejoin="round" stroke-miterlimit="10" stroke-width="1.5"/><path fill="none" stroke="rgb(21,101,192)" paint-order="fill stroke markers" d=" M 159.79042001283574 202.4574265279464 L 195.0699685083374 131.89832953694304" stroke-opacity="0.6980392156862745" stroke-linecap="round" stroke-linejoin="round" stroke-miterlimit="10" stroke-width="1.5"/><path fill="none" stroke="rgb(21,101,192)" paint-order="fill stroke markers" d=" M 195.0699685083374 131.89832953694304 L 265.6290654993407 167.1778780324447" stroke-opacity="0.6980392156862745" stroke-linecap="round" stroke-linejoin="round" stroke-miterlimit="10" stroke-width="1.5"/><path fill="none" stroke="rgb(21,101,192)" paint-order="fill stroke markers" d=" M 265.6290654993407 167.1778780324447 L 230.34951700383903 237.73697502344808" stroke-opacity="0.6980392156862745" stroke-linecap="round" stroke-linejoin="round" stroke-miterlimit="10" stroke-width="1.5"/><path fill="none" stroke="rgb(21,101,192)" paint-order="fill stroke markers" d=" M 230.34951700383903 237.73697502344808 L 159.79042001283574 202.4574265279464" stroke-opacity="0.6980392156862745" stroke-linecap="round" stroke-linejoin="round" stroke-miterlimit="10" stroke-width="1.5"/><path fill="rgb(21,101,192)" stroke="none" paint-order="stroke fill markers" d=" M 374.46771098584566 220.09720077569725 C 374.46771098584566 221.75405502518961 373.124565235338 223.09720077569725 371.46771098584566 223.09720077569725 C 369.8108567363533 223.09720077569725 368.46771098584566 221.75405502518961 368.46771098584566 220.09720077569725 C 368.46771098584566 218.44034652620488 369.8108567363533 217.09720077569725 371.46771098584566 217.09720077569725 C 373.124565235338 217.09720077569725 374.46771098584566 218.44034652620488 374.46771098584566 220.09720077569725 Z" fill-opacity="1"/><path fill="none" stroke="rgb(0,0,0)" paint-order="fill stroke markers" d=" M 374.46771098584566 220.09720077569725 C 374.46771098584566 221.75405502518961 373.124565235338 223.09720077569725 371.46771098584566 223.09720077569725 C 369.8108567363533 223.09720077569725 368.46771098584566 221.75405502518961 368.46771098584566 220.09720077569725 C 368.46771098584566 218.44034652620488 369.8108567363533 217.09720077569725 371.46771098584566 217.09720077569725 C 373.124565235338 217.09720077569725 374.46771098584566 218.44034652620488 374.46771098584566 220.09720077569725 Z" stroke-opacity="1" stroke-linecap="round" stroke-linejoin="round" stroke-miterlimit="10"/><text fill="none" stroke="rgb(255,255,255)" font-family="geogebra-sans-serif, sans-serif" font-size="12px" font-style="normal" font-weight="normal" text-decoration="normal" x="375" y="214" text-anchor="start" dominant-baseline="alphabetic" stroke-opacity="1" stroke-linecap="round" stroke-linejoin="bevel" stroke-miterlimit="10" stroke-width="3">B = (3, 1)</text><text fill="rgb(21,101,192)" stroke="none" font-family="geogebra-sans-serif, sans-serif" font-size="12px" font-style="normal" font-weight="normal" text-decoration="normal" x="375" y="214" text-anchor="start" dominant-baseline="alphabetic" fill-opacity="1">B = (3, 1)</text><path fill="rgb(21,101,192)" stroke="none" paint-order="stroke fill markers" d=" M 198.0699685083374 131.89832953694304 C 198.0699685083374 133.5551837864354 196.72682275782978 134.89832953694304 195.0699685083374 134.89832953694304 C 193.41311425884504 134.89832953694304 192.0699685083374 133.5551837864354 192.0699685083374 131.89832953694304 C 192.0699685083374 130.24147528745067 193.41311425884504 128.89832953694304 195.0699685083374 128.89832953694304 C 196.72682275782978 128.89832953694304 198.0699685083374 130.24147528745067 198.0699685083374 131.89832953694304 Z" fill-opacity="1"/><path fill="none" stroke="rgb(0,0,0)" paint-order="fill stroke markers" d=" M 198.0699685083374 131.89832953694304 C 198.0699685083374 133.5551837864354 196.72682275782978 134.89832953694304 195.0699685083374 134.89832953694304 C 193.41311425884504 134.89832953694304 192.0699685083374 133.5551837864354 192.0699685083374 131.89832953694304 C 192.0699685083374 130.24147528745067 193.41311425884504 128.89832953694304 195.0699685083374 128.89832953694304 C 196.72682275782978 128.89832953694304 198.0699685083374 130.24147528745067 198.0699685083374 131.89832953694304 Z" stroke-opacity="1" stroke-linecap="round" stroke-linejoin="round" stroke-miterlimit="10"/><text fill="none" stroke="rgb(255,255,255)" font-family="geogebra-sans-serif, sans-serif" font-size="12px" font-style="normal" font-weight="normal" text-decoration="normal" x="187" y="122" text-anchor="start" dominant-baseline="alphabetic" stroke-opacity="1" stroke-linecap="round" stroke-linejoin="bevel" stroke-miterlimit="10" stroke-width="3">A = (1, 2)</text><text fill="rgb(21,101,192)" stroke="none" font-family="geogebra-sans-serif, sans-serif" font-size="12px" font-style="normal" font-weight="normal" text-decoration="normal" x="187" y="122" text-anchor="start" dominant-baseline="alphabetic" fill-opacity="1">A = (1, 2)</text><path fill="rgb(21,101,192)" stroke="none" paint-order="stroke fill markers" d=" M 198.0699685083374 220.09720077569725 C 198.0699685083374 221.75405502518961 196.72682275782978 223.09720077569725 195.0699685083374 223.09720077569725 C 193.41311425884504 223.09720077569725 192.0699685083374 221.75405502518961 192.0699685083374 220.09720077569725 C 192.0699685083374 218.44034652620488 193.41311425884504 217.09720077569725 195.0699685083374 217.09720077569725 C 196.72682275782978 217.09720077569725 198.0699685083374 218.44034652620488 198.0699685083374 220.09720077569725 Z" fill-opacity="1"/><path fill="none" stroke="rgb(0,0,0)" paint-order="fill stroke markers" d=" M 198.0699685083374 220.09720077569725 C 198.0699685083374 221.75405502518961 196.72682275782978 223.09720077569725 195.0699685083374 223.09720077569725 C 193.41311425884504 223.09720077569725 192.0699685083374 221.75405502518961 192.0699685083374 220.09720077569725 C 192.0699685083374 218.44034652620488 193.41311425884504 217.09720077569725 195.0699685083374 217.09720077569725 C 196.72682275782978 217.09720077569725 198.0699685083374 218.44034652620488 198.0699685083374 220.09720077569725 Z" stroke-opacity="1" stroke-linecap="round" stroke-linejoin="round" stroke-miterlimit="10"/><text fill="none" stroke="rgb(255,255,255)" font-family="geogebra-sans-serif, sans-serif" font-size="12px" font-style="normal" font-weight="normal" text-decoration="normal" x="205" y="222" text-anchor="start" dominant-baseline="alphabetic" stroke-opacity="1" stroke-linecap="round" stroke-linejoin="bevel" stroke-miterlimit="10" stroke-width="3">D = (1, 1)</text><text fill="rgb(21,101,192)" stroke="none" font-family="geogebra-sans-serif, sans-serif" font-size="12px" font-style="normal" font-weight="normal" text-decoration="normal" x="205" y="222" text-anchor="start" dominant-baseline="alphabetic" fill-opacity="1">D = (1, 1)</text><path fill="rgb(21,101,192)" stroke="none" paint-order="stroke fill markers" d=" M 374.46771098584566 308.29607201445145 C 374.46771098584566 309.9529262639438 373.124565235338 311.29607201445145 371.46771098584566 311.29607201445145 C 369.8108567363533 311.29607201445145 368.46771098584566 309.9529262639438 368.46771098584566 308.29607201445145 C 368.46771098584566 306.6392177649591 369.8108567363533 305.29607201445145 371.46771098584566 305.29607201445145 C 373.124565235338 305.29607201445145 374.46771098584566 306.6392177649591 374.46771098584566 308.29607201445145 Z" fill-opacity="1"/><path fill="none" stroke="rgb(0,0,0)" paint-order="fill stroke markers" d=" M 374.46771098584566 308.29607201445145 C 374.46771098584566 309.9529262639438 373.124565235338 311.29607201445145 371.46771098584566 311.29607201445145 C 369.8108567363533 311.29607201445145 368.46771098584566 309.9529262639438 368.46771098584566 308.29607201445145 C 368.46771098584566 306.6392177649591 369.8108567363533 305.29607201445145 371.46771098584566 305.29607201445145 C 373.124565235338 305.29607201445145 374.46771098584566 306.6392177649591 374.46771098584566 308.29607201445145 Z" stroke-opacity="1" stroke-linecap="round" stroke-linejoin="round" stroke-miterlimit="10"/><text fill="none" stroke="rgb(255,255,255)" font-family="geogebra-sans-serif, sans-serif" font-size="12px" font-style="normal" font-weight="normal" text-decoration="normal" x="375" y="302" text-anchor="start" dominant-baseline="alphabetic" stroke-opacity="1" stroke-linecap="round" stroke-linejoin="bevel" stroke-miterlimit="10" stroke-width="3">C = (3, 0)</text><text fill="rgb(21,101,192)" stroke="none" font-family="geogebra-sans-serif, sans-serif" font-size="12px" font-style="normal" font-weight="normal" text-decoration="normal" x="375" y="302" text-anchor="start" dominant-baseline="alphabetic" fill-opacity="1">C = (3, 0)</text><path fill="rgb(21,101,192)" stroke="none" paint-order="stroke fill markers" d=" M 109.87109726958327 308.29607201445145 C 109.87109726958327 309.9529262639438 108.52795151907566 311.29607201445145 106.87109726958327 311.29607201445145 C 105.21424302009089 311.29607201445145 103.87109726958327 309.9529262639438 103.87109726958327 308.29607201445145 C 103.87109726958327 306.6392177649591 105.21424302009089 305.29607201445145 106.87109726958327 305.29607201445145 C 108.52795151907566 305.29607201445145 109.87109726958327 306.6392177649591 109.87109726958327 308.29607201445145 Z" fill-opacity="1"/><path fill="none" stroke="rgb(0,0,0)" paint-order="fill stroke markers" d=" M 109.87109726958327 308.29607201445145 C 109.87109726958327 309.9529262639438 108.52795151907566 311.29607201445145 106.87109726958327 311.29607201445145 C 105.21424302009089 311.29607201445145 103.87109726958327 309.9529262639438 103.87109726958327 308.29607201445145 C 103.87109726958327 306.6392177649591 105.21424302009089 305.29607201445145 106.87109726958327 305.29607201445145 C 108.52795151907566 305.29607201445145 109.87109726958327 306.6392177649591 109.87109726958327 308.29607201445145 Z" stroke-opacity="1" stroke-linecap="round" stroke-linejoin="round" stroke-miterlimit="10"/><text fill="none" stroke="rgb(255,255,255)" font-family="geogebra-sans-serif, sans-serif" font-size="12px" font-style="normal" font-weight="normal" text-decoration="normal" x="127" y="294" text-anchor="start" dominant-baseline="alphabetic" stroke-opacity="1" stroke-linecap="round" stroke-linejoin="bevel" stroke-miterlimit="10" stroke-width="3">E = (0, 0)</text><text fill="rgb(21,101,192)" stroke="none" font-family="geogebra-sans-serif, sans-serif" font-size="12px" font-style="normal" font-weight="normal" text-decoration="normal" x="127" y="294" text-anchor="start" dominant-baseline="alphabetic" fill-opacity="1">E = (0, 0)</text><path fill="rgb(21,101,192)" stroke="none" paint-order="stroke fill markers" d=" M 286.26883974709153 131.89832953694304 C 286.26883974709153 133.5551837864354 284.9256939965839 134.89832953694304 283.26883974709153 134.89832953694304 C 281.61198549759916 134.89832953694304 280.26883974709153 133.5551837864354 280.26883974709153 131.89832953694304 C 280.26883974709153 130.24147528745067 281.61198549759916 128.89832953694304 283.26883974709153 128.89832953694304 C 284.9256939965839 128.89832953694304 286.26883974709153 130.24147528745067 286.26883974709153 131.89832953694304 Z" fill-opacity="1"/><path fill="none" stroke="rgb(0,0,0)" paint-order="fill stroke markers" d=" M 286.26883974709153 131.89832953694304 C 286.26883974709153 133.5551837864354 284.9256939965839 134.89832953694304 283.26883974709153 134.89832953694304 C 281.61198549759916 134.89832953694304 280.26883974709153 133.5551837864354 280.26883974709153 131.89832953694304 C 280.26883974709153 130.24147528745067 281.61198549759916 128.89832953694304 283.26883974709153 128.89832953694304 C 284.9256939965839 128.89832953694304 286.26883974709153 130.24147528745067 286.26883974709153 131.89832953694304 Z" stroke-opacity="1" stroke-linecap="round" stroke-linejoin="round" stroke-miterlimit="10"/><text fill="none" stroke="rgb(255,255,255)" font-family="geogebra-sans-serif, sans-serif" font-size="12px" font-style="normal" font-weight="normal" text-decoration="normal" x="295" y="138" text-anchor="start" dominant-baseline="alphabetic" stroke-opacity="1" stroke-linecap="round" stroke-linejoin="bevel" stroke-miterlimit="10" stroke-width="3">G = (2, 2)</text><text fill="rgb(21,101,192)" stroke="none" font-family="geogebra-sans-serif, sans-serif" font-size="12px" font-style="normal" font-weight="normal" text-decoration="normal" x="295" y="138" text-anchor="start" dominant-baseline="alphabetic" fill-opacity="1">G = (2, 2)</text><path fill="rgb(21,101,192)" stroke="none" paint-order="stroke fill markers" d=" M 198.0699685083374 308.29607201445145 C 198.0699685083374 309.9529262639438 196.72682275782978 311.29607201445145 195.0699685083374 311.29607201445145 C 193.41311425884504 311.29607201445145 192.0699685083374 309.9529262639438 192.0699685083374 308.29607201445145 C 192.0699685083374 306.6392177649591 193.41311425884504 305.29607201445145 195.0699685083374 305.29607201445145 C 196.72682275782978 305.29607201445145 198.0699685083374 306.6392177649591 198.0699685083374 308.29607201445145 Z" fill-opacity="1"/><path fill="none" stroke="rgb(0,0,0)" paint-order="fill stroke markers" d=" M 198.0699685083374 308.29607201445145 C 198.0699685083374 309.9529262639438 196.72682275782978 311.29607201445145 195.0699685083374 311.29607201445145 C 193.41311425884504 311.29607201445145 192.0699685083374 309.9529262639438 192.0699685083374 308.29607201445145 C 192.0699685083374 306.6392177649591 193.41311425884504 305.29607201445145 195.0699685083374 305.29607201445145 C 196.72682275782978 305.29607201445145 198.0699685083374 306.6392177649591 198.0699685083374 308.29607201445145 Z" stroke-opacity="1" stroke-linecap="round" stroke-linejoin="round" stroke-miterlimit="10"/><text fill="none" stroke="rgb(255,255,255)" font-family="geogebra-sans-serif, sans-serif" font-size="12px" font-style="normal" font-weight="normal" text-decoration="normal" x="216" y="297" text-anchor="start" dominant-baseline="alphabetic" stroke-opacity="1" stroke-linecap="round" stroke-linejoin="bevel" stroke-miterlimit="10" stroke-width="3">F = (1, 0)</text><text fill="rgb(21,101,192)" stroke="none" font-family="geogebra-sans-serif, sans-serif" font-size="12px" font-style="normal" font-weight="normal" text-decoration="normal" x="216" y="297" text-anchor="start" dominant-baseline="alphabetic" fill-opacity="1">F = (1, 0)</text><path fill="rgb(97,97,97)" stroke="none" paint-order="stroke fill markers" d=" M 162.79042001283574 202.4574265279464 C 162.79042001283574 204.11428077743878 161.4472742623281 205.4574265279464 159.79042001283574 205.4574265279464 C 158.13356576334337 205.4574265279464 156.79042001283574 204.11428077743878 156.79042001283574 202.4574265279464 C 156.79042001283574 200.80057227845404 158.13356576334337 199.4574265279464 159.79042001283574 199.4574265279464 C 161.4472742623281 199.4574265279464 162.79042001283574 200.80057227845404 162.79042001283574 202.4574265279464 Z" fill-opacity="1"/><path fill="none" stroke="rgb(0,0,0)" paint-order="fill stroke markers" d=" M 162.79042001283574 202.4574265279464 C 162.79042001283574 204.11428077743878 161.4472742623281 205.4574265279464 159.79042001283574 205.4574265279464 C 158.13356576334337 205.4574265279464 156.79042001283574 204.11428077743878 156.79042001283574 202.4574265279464 C 156.79042001283574 200.80057227845404 158.13356576334337 199.4574265279464 159.79042001283574 199.4574265279464 C 161.4472742623281 199.4574265279464 162.79042001283574 200.80057227845404 162.79042001283574 202.4574265279464 Z" stroke-opacity="1" stroke-linecap="round" stroke-linejoin="round" stroke-miterlimit="10"/><path fill="rgb(97,97,97)" stroke="none" paint-order="stroke fill markers" d=" M 268.6290654993407 167.1778780324447 C 268.6290654993407 168.83473228193708 267.28591974883307 170.1778780324447 265.6290654993407 170.1778780324447 C 263.9722112498483 170.1778780324447 262.6290654993407 168.83473228193708 262.6290654993407 167.1778780324447 C 262.6290654993407 165.52102378295234 263.9722112498483 164.1778780324447 265.6290654993407 164.1778780324447 C 267.28591974883307 164.1778780324447 268.6290654993407 165.52102378295234 268.6290654993407 167.1778780324447 Z" fill-opacity="1"/><path fill="none" stroke="rgb(0,0,0)" paint-order="fill stroke markers" d=" M 268.6290654993407 167.1778780324447 C 268.6290654993407 168.83473228193708 267.28591974883307 170.1778780324447 265.6290654993407 170.1778780324447 C 263.9722112498483 170.1778780324447 262.6290654993407 168.83473228193708 262.6290654993407 167.1778780324447 C 262.6290654993407 165.52102378295234 263.9722112498483 164.1778780324447 265.6290654993407 164.1778780324447 C 267.28591974883307 164.1778780324447 268.6290654993407 165.52102378295234 268.6290654993407 167.1778780324447 Z" stroke-opacity="1" stroke-linecap="round" stroke-linejoin="round" stroke-miterlimit="10"/><path fill="rgb(97,97,97)" stroke="none" paint-order="stroke fill markers" d=" M 233.34951700383903 237.73697502344808 C 233.34951700383903 239.39382927294045 232.0063712533314 240.73697502344808 230.34951700383903 240.73697502344808 C 228.69266275434666 240.73697502344808 227.34951700383903 239.39382927294045 227.34951700383903 237.73697502344808 C 227.34951700383903 236.0801207739557 228.69266275434666 234.73697502344808 230.34951700383903 234.73697502344808 C 232.0063712533314 234.73697502344808 233.34951700383903 236.0801207739557 233.34951700383903 237.73697502344808 Z" fill-opacity="1"/><path fill="none" stroke="rgb(0,0,0)" paint-order="fill stroke markers" d=" M 233.34951700383903 237.73697502344808 C 233.34951700383903 239.39382927294045 232.0063712533314 240.73697502344808 230.34951700383903 240.73697502344808 C 228.69266275434666 240.73697502344808 227.34951700383903 239.39382927294045 227.34951700383903 237.73697502344808 C 227.34951700383903 236.0801207739557 228.69266275434666 234.73697502344808 230.34951700383903 234.73697502344808 C 232.0063712533314 234.73697502344808 233.34951700383903 236.0801207739557 233.34951700383903 237.73697502344808 Z" stroke-opacity="1" stroke-linecap="round" stroke-linejoin="round" stroke-miterlimit="10"/></g></g></svg>