<?xml version="1.0" encoding="UTF-8"?>
<svg xmlns="http://www.w3.org/2000/svg" xmlns:xlink="http://www.w3.org/1999/xlink" version="1.1">
<g id="surface1">
<path style="fill:none;stroke-width:0.14;stroke-linecap:square;stroke-linejoin:round;stroke:rgb(64.698792%,64.698792%,64.698792%);stroke-opacity:1;stroke-miterlimit:10;" d="M 3.421875 840.42 L 98.605469 840.42 " transform="matrix(1,0,0,-1,0,841.92)"/>
<path style=" stroke:none;fill-rule:evenodd;fill:rgb(64.698792%,64.698792%,64.698792%);fill-opacity:1;" d="M 3.359375 2.398438 L 98.664062 2.398438 L 98.664062 1.441406 L 3.359375 1.441406 Z M 3.359375 2.398438 "/>
<path style="fill:none;stroke-width:0.14;stroke-linecap:square;stroke-linejoin:round;stroke:rgb(64.698792%,64.698792%,64.698792%);stroke-opacity:1;stroke-miterlimit:10;" d="M 3.421875 787.740312 L 98.605469 787.740312 " transform="matrix(1,0,0,-1,0,841.92)"/>
<path style=" stroke:none;fill-rule:evenodd;fill:rgb(64.698792%,64.698792%,64.698792%);fill-opacity:1;" d="M 3.359375 55.078125 L 98.664062 55.078125 L 98.664062 54.121094 L 3.359375 54.121094 Z M 3.359375 55.078125 "/>
<path style="fill:none;stroke-width:0.14;stroke-linecap:square;stroke-linejoin:round;stroke:rgb(64.698792%,64.698792%,64.698792%);stroke-opacity:1;stroke-miterlimit:10;" d="M 3.421875 735.041094 L 50.21875 735.041094 " transform="matrix(1,0,0,-1,0,841.92)"/>
<path style=" stroke:none;fill-rule:evenodd;fill:rgb(64.698792%,64.698792%,64.698792%);fill-opacity:1;" d="M 3.359375 107.78125 L 50.28125 107.78125 L 50.28125 106.820312 L 3.359375 106.820312 Z M 3.359375 107.78125 "/>
<path style="fill:none;stroke-width:0.14;stroke-linecap:square;stroke-linejoin:round;stroke:rgb(64.698792%,64.698792%,64.698792%);stroke-opacity:1;stroke-miterlimit:10;" d="M 50.820312 839.459062 L 50.820312 735.63875 " transform="matrix(1,0,0,-1,0,841.92)"/>
<path style=" stroke:none;fill-rule:evenodd;fill:rgb(64.698792%,64.698792%,64.698792%);fill-opacity:1;" d="M 50.761719 106.339844 L 51.71875 106.339844 L 51.71875 2.398438 L 50.761719 2.398438 Z M 50.761719 106.339844 "/>
<path style=" stroke:none;fill-rule:evenodd;fill:rgb(0%,0%,0%);fill-opacity:1;" d="M 52.199219 108.261719 L 100.585938 108.261719 L 100.585938 106.339844 L 52.199219 106.339844 Z M 52.199219 108.261719 "/>
<path style=" stroke:none;fill-rule:evenodd;fill:rgb(0%,0%,0%);fill-opacity:1;" d="M 98.664062 108.261719 L 100.585938 108.261719 L 100.585938 0.960938 L 98.664062 0.960938 Z M 98.664062 108.261719 "/>
<path style="fill:none;stroke-width:0.14;stroke-linecap:square;stroke-linejoin:round;stroke:rgb(64.698792%,64.698792%,64.698792%);stroke-opacity:1;stroke-miterlimit:10;" d="M 2.460938 840.42 L 2.460938 682.959062 " transform="matrix(1,0,0,-1,0,841.92)"/>
<path style=" stroke:none;fill-rule:evenodd;fill:rgb(64.698792%,64.698792%,64.698792%);fill-opacity:1;" d="M 2.398438 159.019531 L 3.359375 159.019531 L 3.359375 1.441406 L 2.398438 1.441406 Z M 2.398438 159.019531 "/>
<path style=" stroke:none;fill-rule:evenodd;fill:rgb(0%,0%,0%);fill-opacity:1;" d="M 3.839844 160.941406 L 52.199219 160.941406 L 52.199219 159.019531 L 3.839844 159.019531 Z M 3.839844 160.941406 "/>
<path style=" stroke:none;fill-rule:evenodd;fill:rgb(0%,0%,0%);fill-opacity:1;" d="M 50.28125 160.941406 L 52.199219 160.941406 L 52.199219 106.339844 L 50.28125 106.339844 Z M 50.28125 160.941406 "/>
<path style="fill:none;stroke-width:0.14;stroke-linecap:square;stroke-linejoin:round;stroke:rgb(64.698792%,64.698792%,64.698792%);stroke-opacity:1;stroke-miterlimit:10;" d="M 3.898438 629.681719 L 50.21875 629.681719 " transform="matrix(1,0,0,-1,0,841.92)"/>
<path style=" stroke:none;fill-rule:evenodd;fill:rgb(64.698792%,64.698792%,64.698792%);fill-opacity:1;" d="M 3.839844 213.140625 L 50.28125 213.140625 L 50.28125 212.179688 L 3.839844 212.179688 Z M 3.839844 213.140625 "/>
<path style="fill:none;stroke-width:0.14;stroke-linecap:square;stroke-linejoin:round;stroke:rgb(64.698792%,64.698792%,64.698792%);stroke-opacity:1;stroke-miterlimit:10;" d="M 50.820312 680.92 L 50.820312 630.279375 " transform="matrix(1,0,0,-1,0,841.92)"/>
<path style=" stroke:none;fill-rule:evenodd;fill:rgb(64.698792%,64.698792%,64.698792%);fill-opacity:1;" d="M 50.761719 211.699219 L 51.71875 211.699219 L 51.71875 160.941406 L 50.761719 160.941406 Z M 50.761719 211.699219 "/>
<path style="fill:none;stroke-width:0.14;stroke-linecap:square;stroke-linejoin:round;stroke:rgb(64.698792%,64.698792%,64.698792%);stroke-opacity:1;stroke-miterlimit:10;" d="M 99.203125 733.599687 L 99.203125 630.279375 " transform="matrix(1,0,0,-1,0,841.92)"/>
<path style=" stroke:none;fill-rule:evenodd;fill:rgb(64.698792%,64.698792%,64.698792%);fill-opacity:1;" d="M 99.144531 211.699219 L 100.105469 211.699219 L 100.105469 108.261719 L 99.144531 108.261719 Z M 99.144531 211.699219 "/>
<path style=" stroke:none;fill-rule:evenodd;fill:rgb(0%,0%,0%);fill-opacity:1;" d="M 147.019531 213.621094 L 148.941406 213.621094 L 148.941406 2.878906 L 147.019531 2.878906 Z M 147.019531 213.621094 "/>
<path style=" stroke:none;fill-rule:evenodd;fill:rgb(0%,0%,0%);fill-opacity:1;" d="M 3.839844 266.300781 L 52.199219 266.300781 L 52.199219 264.378906 L 3.839844 264.378906 Z M 3.839844 266.300781 "/>
<path style=" stroke:none;fill-rule:evenodd;fill:rgb(0%,0%,0%);fill-opacity:1;" d="M 1.921875 266.300781 L 3.839844 266.300781 L 3.839844 159.019531 L 1.921875 159.019531 Z M 1.921875 266.300781 "/>
<path style=" stroke:none;fill-rule:evenodd;fill:rgb(0%,0%,0%);fill-opacity:1;" d="M 50.28125 266.300781 L 52.199219 266.300781 L 52.199219 211.699219 L 50.28125 211.699219 Z M 50.28125 266.300781 "/>
<path style="fill:none;stroke-width:0.14;stroke-linecap:square;stroke-linejoin:round;stroke:rgb(64.698792%,64.698792%,64.698792%);stroke-opacity:1;stroke-miterlimit:10;" d="M 99.203125 628.240312 L 99.203125 576.158281 " transform="matrix(1,0,0,-1,0,841.92)"/>
<path style=" stroke:none;fill-rule:evenodd;fill:rgb(64.698792%,64.698792%,64.698792%);fill-opacity:1;" d="M 99.144531 265.820312 L 100.105469 265.820312 L 100.105469 213.621094 L 99.144531 213.621094 Z M 99.144531 265.820312 "/>
<path style="fill:none;stroke-width:0.14;stroke-linecap:square;stroke-linejoin:round;stroke:rgb(64.698792%,64.698792%,64.698792%);stroke-opacity:1;stroke-miterlimit:10;" d="M 147.558594 628.240312 L 147.558594 576.158281 " transform="matrix(1,0,0,-1,0,841.92)"/>
<path style=" stroke:none;fill-rule:evenodd;fill:rgb(64.698792%,64.698792%,64.698792%);fill-opacity:1;" d="M 147.5 265.820312 L 148.460938 265.820312 L 148.460938 213.621094 L 147.5 213.621094 Z M 147.5 265.820312 "/>
<path style=" stroke:none;fill-rule:evenodd;fill:rgb(0%,0%,0%);fill-opacity:1;" d="M 100.578125 2.878906 L 148.941406 2.878906 L 148.941406 0.960938 L 100.578125 0.960938 Z M 100.578125 2.878906 "/>
<path style="fill:none;stroke-width:0.14;stroke-linecap:square;stroke-linejoin:round;stroke:rgb(64.698792%,64.698792%,64.698792%);stroke-opacity:1;stroke-miterlimit:10;" d="M 100.640625 787.740312 L 146.960938 787.740312 " transform="matrix(1,0,0,-1,0,841.92)"/>
<path style=" stroke:none;fill-rule:evenodd;fill:rgb(64.698792%,64.698792%,64.698792%);fill-opacity:1;" d="M 100.578125 55.078125 L 147.019531 55.078125 L 147.019531 54.121094 L 100.578125 54.121094 Z M 100.578125 55.078125 "/>
<path style="fill:none;stroke-width:0.14;stroke-linecap:square;stroke-linejoin:round;stroke:rgb(64.698792%,64.698792%,64.698792%);stroke-opacity:1;stroke-miterlimit:10;" d="M 100.640625 735.041094 L 146.960938 735.041094 " transform="matrix(1,0,0,-1,0,841.92)"/>
<path style=" stroke:none;fill-rule:evenodd;fill:rgb(64.698792%,64.698792%,64.698792%);fill-opacity:1;" d="M 100.578125 107.78125 L 147.019531 107.78125 L 147.019531 106.820312 L 100.578125 106.820312 Z M 100.578125 107.78125 "/>
<path style="fill:none;stroke-width:0.14;stroke-linecap:square;stroke-linejoin:round;stroke:rgb(64.698792%,64.698792%,64.698792%);stroke-opacity:1;stroke-miterlimit:10;" d="M 52.261719 682.361406 L 146.960938 682.361406 " transform="matrix(1,0,0,-1,0,841.92)"/>
<path style=" stroke:none;fill-rule:evenodd;fill:rgb(64.698792%,64.698792%,64.698792%);fill-opacity:1;" d="M 52.199219 160.460938 L 147.023438 160.460938 L 147.023438 159.5 L 52.199219 159.5 Z M 52.199219 160.460938 "/>
<path style=" stroke:none;fill-rule:evenodd;fill:rgb(0%,0%,0%);fill-opacity:1;" d="M 52.199219 213.621094 L 148.945312 213.621094 L 148.945312 211.699219 L 52.199219 211.699219 Z M 52.199219 213.621094 "/>
<path style="fill:none;stroke-width:0.14;stroke-linecap:square;stroke-linejoin:round;stroke:rgb(64.698792%,64.698792%,64.698792%);stroke-opacity:1;stroke-miterlimit:10;" d="M 52.261719 576.998125 L 148.398438 576.998125 " transform="matrix(1,0,0,-1,0,841.92)"/>
<path style=" stroke:none;fill-rule:evenodd;fill:rgb(64.698792%,64.698792%,64.698792%);fill-opacity:1;" d="M 52.199219 265.820312 L 148.464844 265.820312 L 148.464844 264.859375 L 52.199219 264.859375 Z M 52.199219 265.820312 "/>
</g>
</svg>
