<?xml version="1.0" encoding="UTF-8"?>
<svg xmlns="http://www.w3.org/2000/svg" xmlns:xlink="http://www.w3.org/1999/xlink" version="1.1">
<g id="surface1">
<path style="fill:none;stroke-width:0.14;stroke-linecap:square;stroke-linejoin:round;stroke:rgb(64.698792%,64.698792%,64.698792%);stroke-opacity:1;stroke-miterlimit:10;" d="M 3.898438 787.740312 L 50.21875 787.740312 " transform="matrix(1,0,0,-1,0,841.92)"/>
<path style=" stroke:none;fill-rule:evenodd;fill:rgb(64.698792%,64.698792%,64.698792%);fill-opacity:1;" d="M 3.839844 55.078125 L 50.28125 55.078125 L 50.28125 54.121094 L 3.839844 54.121094 Z M 3.839844 55.078125 "/>
<path style="fill:none;stroke-width:0.14;stroke-linecap:square;stroke-linejoin:round;stroke:rgb(64.698792%,64.698792%,64.698792%);stroke-opacity:1;stroke-miterlimit:10;" d="M 50.820312 838.978594 L 50.820312 788.341875 " transform="matrix(1,0,0,-1,0,841.92)"/>
<path style=" stroke:none;fill-rule:evenodd;fill:rgb(64.698792%,64.698792%,64.698792%);fill-opacity:1;" d="M 50.761719 53.640625 L 51.71875 53.640625 L 51.71875 2.878906 L 50.761719 2.878906 Z M 50.761719 53.640625 "/>
<path style=" stroke:none;fill-rule:evenodd;fill:rgb(0%,0%,0%);fill-opacity:1;" d="M 98.664062 55.558594 L 100.585938 55.558594 L 100.585938 2.878906 L 98.664062 2.878906 Z M 98.664062 55.558594 "/>
<path style=" stroke:none;fill-rule:evenodd;fill:rgb(0%,0%,0%);fill-opacity:1;" d="M 3.839844 108.261719 L 52.199219 108.261719 L 52.199219 106.339844 L 3.839844 106.339844 Z M 3.839844 108.261719 "/>
<path style=" stroke:none;fill-rule:evenodd;fill:rgb(0%,0%,0%);fill-opacity:1;" d="M 1.921875 108.261719 L 3.839844 108.261719 L 3.839844 0.960938 L 1.921875 0.960938 Z M 1.921875 108.261719 "/>
<path style=" stroke:none;fill-rule:evenodd;fill:rgb(0%,0%,0%);fill-opacity:1;" d="M 50.28125 108.261719 L 52.199219 108.261719 L 52.199219 53.636719 L 50.28125 53.636719 Z M 50.28125 108.261719 "/>
<path style="fill:none;stroke-width:0.14;stroke-linecap:square;stroke-linejoin:round;stroke:rgb(64.698792%,64.698792%,64.698792%);stroke-opacity:1;stroke-miterlimit:10;" d="M 99.203125 786.298906 L 99.203125 734.20125 " transform="matrix(1,0,0,-1,0,841.92)"/>
<path style=" stroke:none;fill-rule:evenodd;fill:rgb(64.698792%,64.698792%,64.698792%);fill-opacity:1;" d="M 99.144531 107.78125 L 100.105469 107.78125 L 100.105469 55.554688 L 99.144531 55.554688 Z M 99.144531 107.78125 "/>
<path style=" stroke:none;fill-rule:evenodd;fill:rgb(0%,0%,0%);fill-opacity:1;" d="M 3.839844 2.878906 L 100.585938 2.878906 L 100.585938 0.960938 L 3.839844 0.960938 Z M 3.839844 2.878906 "/>
<path style=" stroke:none;fill-rule:evenodd;fill:rgb(0%,0%,0%);fill-opacity:1;" d="M 52.199219 55.558594 L 100.585938 55.558594 L 100.585938 53.640625 L 52.199219 53.640625 Z M 52.199219 55.558594 "/>
<path style="fill:none;stroke-width:0.14;stroke-linecap:square;stroke-linejoin:round;stroke:rgb(64.698792%,64.698792%,64.698792%);stroke-opacity:1;stroke-miterlimit:10;" d="M 52.261719 735.041094 L 100.039062 735.041094 " transform="matrix(1,0,0,-1,0,841.92)"/>
<path style=" stroke:none;fill-rule:evenodd;fill:rgb(64.698792%,64.698792%,64.698792%);fill-opacity:1;" d="M 52.199219 107.78125 L 100.105469 107.78125 L 100.105469 106.820312 L 52.199219 106.820312 Z M 52.199219 107.78125 "/>
</g>
</svg>
