<?xml version="1.0" encoding="UTF-8" standalone="no"?>
<svg
   xmlns:dc="http://purl.org/dc/elements/1.1/"
   xmlns:cc="http://creativecommons.org/ns#"
   xmlns:rdf="http://www.w3.org/1999/02/22-rdf-syntax-ns#"
   xmlns:svg="http://www.w3.org/2000/svg"
   xmlns="http://www.w3.org/2000/svg"
   viewBox="0 0 411.21332 270.22668"
   height="270.22668"
   width="411.21332"
   xml:space="preserve"
   id="svg2"
   version="1.1"><metadata
     id="metadata8"><rdf:RDF><cc:Work
         rdf:about=""><dc:format>image/svg+xml</dc:format><dc:type
           rdf:resource="http://purl.org/dc/dcmitype/StillImage" /></cc:Work></rdf:RDF></metadata><defs
     id="defs6" /><g
     transform="matrix(1.3333333,0,0,-1.3333333,0,270.22667)"
     id="g10"><g
       transform="scale(0.1)"
       id="g12"><path
         id="path14"
         style="fill:none;stroke:#231f20;stroke-width:50;stroke-linecap:butt;stroke-linejoin:miter;stroke-miterlimit:10;stroke-dasharray:none;stroke-opacity:1"
         d="m 161.012,900 746.254,88.34" /><path
         id="path16"
         style="fill:none;stroke:#231f20;stroke-width:50;stroke-linecap:butt;stroke-linejoin:miter;stroke-miterlimit:10;stroke-dasharray:none;stroke-opacity:1"
         d="m 1369.1,958.34 c 397.56,-10.02 322.5,-370 259.03,-492" /><path
         id="path18"
         style="fill:none;stroke:#231f20;stroke-width:50;stroke-linecap:butt;stroke-linejoin:miter;stroke-miterlimit:10;stroke-dasharray:120, 120;stroke-dashoffset:0;stroke-opacity:1"
         d="M 1272.43,238.34 469.098,694.352" /><path
         id="path20"
         style="fill:none;stroke:#231f20;stroke-width:50;stroke-linecap:butt;stroke-linejoin:miter;stroke-miterlimit:10;stroke-dasharray:120, 120;stroke-dashoffset:0;stroke-opacity:1"
         d="M 1781.67,1717.18 1337.43,1088.34" /><path
         id="path22"
         style="fill:none;stroke:#231f20;stroke-width:50;stroke-linecap:butt;stroke-linejoin:miter;stroke-miterlimit:10;stroke-dasharray:none;stroke-opacity:1"
         d="M 2751.46,379.191 2024.93,1525" /><path
         id="path24"
         style="fill:none;stroke:#231f20;stroke-width:50;stroke-linecap:butt;stroke-linejoin:miter;stroke-miterlimit:10;stroke-dasharray:none;stroke-opacity:1"
         d="M 1410.76,168.332 2547.3,183.191" /><path
         id="path26"
         style="fill:none;stroke:#231f20;stroke-width:50;stroke-linecap:butt;stroke-linejoin:miter;stroke-miterlimit:10;stroke-dasharray:120, 120;stroke-dashoffset:0;stroke-opacity:1"
         d="M 1305.76,831.672 1452.43,345" /><path
         id="path28"
         style="fill:#ffffff;fill-opacity:1;fill-rule:nonzero;stroke:none"
         d="m 411.672,887.371 c 0,-112.301 -91.035,-203.34 -203.336,-203.34 C 96.0352,684.031 5,775.07 5,887.371 5,999.672 96.0352,1090.7 208.336,1090.7 c 112.301,0 203.336,-91.028 203.336,-203.329" /><path
         id="path30"
         style="fill:none;stroke:#231f20;stroke-width:10;stroke-linecap:butt;stroke-linejoin:miter;stroke-miterlimit:10;stroke-dasharray:none;stroke-opacity:1"
         d="m 411.672,887.371 c 0,-112.301 -91.035,-203.34 -203.336,-203.34 C 96.0352,684.031 5,775.07 5,887.371 5,999.672 96.0352,1090.7 208.336,1090.7 c 112.301,0 203.336,-91.028 203.336,-203.329 z" /><g
         transform="scale(10)"
         id="g32"><text
           id="text36"
           style="font-variant:normal;font-weight:normal;font-size:31.42219925px;font-family:'Open Sans';-inkscape-font-specification:OpenSans;writing-mode:lr-tb;fill:#231f20;fill-opacity:1;fill-rule:nonzero;stroke:none"
           transform="matrix(1,0,0,-1,11.4234,77.9738)"><tspan
             id="tspan34"
             y="0"
             x="0">1</tspan></text>
</g><path
         id="path38"
         style="fill:#ffffff;fill-opacity:1;fill-rule:nonzero;stroke:none"
         d="m 1429.11,988.34 c 0,-112.301 -91.04,-203.34 -203.34,-203.34 -112.3,0 -203.33,91.039 -203.33,203.34 0,112.3 91.03,203.33 203.33,203.33 112.3,0 203.34,-91.03 203.34,-203.33" /><path
         id="path40"
         style="fill:none;stroke:#231f20;stroke-width:10;stroke-linecap:butt;stroke-linejoin:miter;stroke-miterlimit:10;stroke-dasharray:none;stroke-opacity:1"
         d="m 1429.11,988.34 c 0,-112.301 -91.04,-203.34 -203.34,-203.34 -112.3,0 -203.33,91.039 -203.33,203.34 0,112.3 91.03,203.33 203.33,203.33 112.3,0 203.34,-91.03 203.34,-203.33 z" /><g
         transform="scale(10)"
         id="g42"><text
           id="text46"
           style="font-variant:normal;font-weight:normal;font-size:30.12249947px;font-family:'Open Sans';-inkscape-font-specification:OpenSans;writing-mode:lr-tb;fill:#231f20;fill-opacity:1;fill-rule:nonzero;stroke:none"
           transform="matrix(1,0,0,-1,114.167,88.718)"><tspan
             id="tspan44"
             y="0"
             x="0">2</tspan></text>
</g><path
         id="path48"
         style="fill:#ffffff;fill-opacity:1;fill-rule:nonzero;stroke:none"
         d="M 1639.11,208.34 C 1639.11,96.0391 1548.07,5 1435.77,5 c -112.3,0 -203.33,91.0391 -203.33,203.34 0,112.289 91.03,203.332 203.33,203.332 112.3,0 203.34,-91.043 203.34,-203.332" /><path
         id="path50"
         style="fill:none;stroke:#231f20;stroke-width:10;stroke-linecap:butt;stroke-linejoin:miter;stroke-miterlimit:10;stroke-dasharray:none;stroke-opacity:1"
         d="M 1639.11,208.34 C 1639.11,96.0391 1548.07,5 1435.77,5 c -112.3,0 -203.33,91.0391 -203.33,203.34 0,112.289 91.03,203.332 203.33,203.332 112.3,0 203.34,-91.043 203.34,-203.332 z" /><g
         transform="scale(10)"
         id="g52"><text
           id="text56"
           style="font-variant:normal;font-weight:normal;font-size:30.12249947px;font-family:'Open Sans';-inkscape-font-specification:OpenSans;writing-mode:lr-tb;fill:#231f20;fill-opacity:1;fill-rule:nonzero;stroke:none"
           transform="matrix(1,0,0,-1,135.167,10.718)"><tspan
             id="tspan54"
             y="0"
             x="0">3</tspan></text>
</g><path
         id="path58"
         style="fill:#ffffff;fill-opacity:1;fill-rule:nonzero;stroke:none"
         d="m 2079.11,1818.34 c 0,-112.3 -91.04,-203.34 -203.34,-203.34 -112.3,0 -203.33,91.04 -203.33,203.34 0,112.3 91.03,203.33 203.33,203.33 112.3,0 203.34,-91.03 203.34,-203.33" /><path
         id="path60"
         style="fill:none;stroke:#231f20;stroke-width:10;stroke-linecap:butt;stroke-linejoin:miter;stroke-miterlimit:10;stroke-dasharray:none;stroke-opacity:1"
         d="m 2079.11,1818.34 c 0,-112.3 -91.04,-203.34 -203.34,-203.34 -112.3,0 -203.33,91.04 -203.33,203.34 0,112.3 91.03,203.33 203.33,203.33 112.3,0 203.34,-91.03 203.34,-203.33 z" /><g
         transform="scale(10)"
         id="g62"><text
           id="text66"
           style="font-variant:normal;font-weight:normal;font-size:30.12249947px;font-family:'Open Sans';-inkscape-font-specification:OpenSans;writing-mode:lr-tb;fill:#231f20;fill-opacity:1;fill-rule:nonzero;stroke:none"
           transform="matrix(1,0,0,-1,178.167,171.718)"><tspan
             id="tspan64"
             y="0"
             x="0">4</tspan></text>
</g><path
         id="path68"
         style="fill:#ffffff;fill-opacity:1;fill-rule:nonzero;stroke:none"
         d="M 3079.11,218.34 C 3079.11,106.039 2988.07,15 2875.78,15 c -112.31,0 -203.34,91.039 -203.34,203.34 0,112.289 91.03,203.332 203.34,203.332 112.29,0 203.33,-91.043 203.33,-203.332" /><path
         id="path70"
         style="fill:none;stroke:#231f20;stroke-width:10;stroke-linecap:butt;stroke-linejoin:miter;stroke-miterlimit:10;stroke-dasharray:none;stroke-opacity:1"
         d="M 3079.11,218.34 C 3079.11,106.039 2988.07,15 2875.78,15 c -112.31,0 -203.34,91.039 -203.34,203.34 0,112.289 91.03,203.332 203.34,203.332 112.29,0 203.33,-91.043 203.33,-203.332 z" /><g
         transform="scale(10)"
         id="g72"><text
           id="text76"
           style="font-variant:normal;font-weight:normal;font-size:30.12249947px;font-family:'Open Sans';-inkscape-font-specification:OpenSans;writing-mode:lr-tb;fill:#231f20;fill-opacity:1;fill-rule:nonzero;stroke:none"
           transform="matrix(1,0,0,-1,279.167,11.718)"><tspan
             id="tspan74"
             y="0"
             x="0">5</tspan></text>
<text
           id="text80"
           style="font-variant:normal;font-weight:normal;font-size:17.02430916px;font-family:'Open Sans';-inkscape-font-specification:OpenSans;writing-mode:lr-tb;fill:#231f20;fill-opacity:1;fill-rule:nonzero;stroke:none"
           transform="matrix(0.525379,-0.850869,-0.850869,-0.525379,239.493,105.346)"><tspan
             id="tspan78"
             y="0"
             x="0 9.7337914">10</tspan></text>
<text
           id="text84"
           style="font-variant:normal;font-weight:normal;font-size:17.02419853px;font-family:'Open Sans';-inkscape-font-specification:OpenSans;writing-mode:lr-tb;fill:#231f20;fill-opacity:1;fill-rule:nonzero;stroke:none"
           transform="matrix(0.582156,0.813077,0.813077,-0.582156,151.698,149.55)"><tspan
             id="tspan82"
             y="0"
             x="0">2</tspan></text>
<text
           id="text88"
           style="font-variant:normal;font-weight:normal;font-size:17.02420235px;font-family:'Open Sans';-inkscape-font-specification:OpenSans;writing-mode:lr-tb;fill:#231f20;fill-opacity:1;fill-rule:nonzero;stroke:none"
           transform="matrix(0.867018,-0.498277,-0.498277,-0.867018,86.5809,53.948)"><tspan
             id="tspan86"
             y="0"
             x="0">4</tspan></text>
<text
           id="text92"
           style="font-variant:normal;font-weight:normal;font-size:17.02430534px;font-family:'Open Sans';-inkscape-font-specification:OpenSans;writing-mode:lr-tb;fill:#231f20;fill-opacity:1;fill-rule:nonzero;stroke:none"
           transform="matrix(0.99307,0.117527,0.117527,-0.99307,61.5574,101.754)"><tspan
             id="tspan90"
             y="0"
             x="0">3</tspan></text>
<text
           id="text96"
           style="font-variant:normal;font-weight:normal;font-size:17.02429771px;font-family:'Open Sans';-inkscape-font-specification:OpenSans;writing-mode:lr-tb;fill:#231f20;fill-opacity:1;fill-rule:nonzero;stroke:none"
           transform="matrix(0.999996,0.00276098,0.00276098,-0.999996,204.021,23.3539)"><tspan
             id="tspan94"
             y="0"
             x="0">5</tspan></text>
</g><path
         id="path98"
         style="fill:#231f20;fill-opacity:1;fill-rule:nonzero;stroke:none"
         d="M 1965.52,1633.05 2093.77,1533 1988.04,1470.11 Z" /><path
         id="path100"
         style="fill:#231f20;fill-opacity:1;fill-rule:nonzero;stroke:none"
         d="m 1371.74,1150.45 45.74,156.1 97.43,-75.1 z" /><path
         id="path102"
         style="fill:#231f20;fill-opacity:1;fill-rule:nonzero;stroke:none"
         d="M 1022.44,993.941 876.715,921.672 865.813,1044.2 Z" /><path
         id="path104"
         style="fill:#231f20;fill-opacity:1;fill-rule:nonzero;stroke:none"
         d="m 1428.36,405.859 -95.05,131.993 119.12,30.726 z" /><path
         id="path106"
         style="fill:#231f20;fill-opacity:1;fill-rule:nonzero;stroke:none"
         d="M 365.793,761.699 525.566,731.219 460.199,627 Z" /><path
         id="path108"
         style="fill:#231f20;fill-opacity:1;fill-rule:nonzero;stroke:none"
         d="m 2672.44,181.988 -150.46,-61.816 -2.24,122.988 z" /><path
         id="path110"
         style="fill:#231f20;fill-opacity:1;fill-rule:nonzero;stroke:none"
         d="m 1585.62,363.73 -4.41,162.59 115.8,-41.539 z" /><g
         transform="scale(10)"
         id="g112"><text
           id="text118"
           style="font-variant:normal;font-weight:normal;font-size:17.02430344px;font-family:'Open Sans';-inkscape-font-specification:OpenSans;writing-mode:lr-tb;fill:#231f20;fill-opacity:1;fill-rule:nonzero;stroke:none"
           transform="matrix(0.306453,-0.951886,-0.951886,-0.306453,171.384,84.7109)"><tspan
             id="tspan114"
             y="0"
             x="0">3</tspan><tspan
             id="tspan116"
             y="33.923508"
             x="0.63454413">1</tspan></text>
</g></g></g></svg>